<?xml version="1.0" standalone="no"?>
<!DOCTYPE svg PUBLIC "-//W3C//DTD SVG 20010904//EN"
 "http://www.w3.org/TR/2001/REC-SVG-20010904/DTD/svg10.dtd">
<svg version="1.0" xmlns="http://www.w3.org/2000/svg"
 width="300.000000pt" height="300.000000pt" viewBox="0 0 300.000000 300.000000"
 preserveAspectRatio="xMidYMid meet">
<metadata>
Created by potrace 1.10, written by Peter Selinger 2001-2011
</metadata>
<g transform="translate(0.000000,300.000000) scale(0.100000,-0.100000)"
fill="#000000" stroke="none">
<path d="M927 1687 c-158 -435 -288 -795 -287 -799 0 -4 85 -7 188 -8 l188 0
59 167 c32 93 67 192 77 221 l19 52 324 0 323 0 77 -220 78 -220 134 0 c104 0
134 3 131 13 -3 6 -133 364 -289 794 l-284 783 -165 0 -165 0 -279 -767 c-154
-423 -283 -779 -288 -792 -7 -18 -11 -21 -22 -12 -8 7 -18 11 -22 10 -37 -6
-45 1 -39 33 4 18 11 39 16 48 4 8 23 60 43 115 36 107 101 287 116 320 4 11
20 56 35 100 15 44 34 88 43 98 8 9 12 17 9 17 -11 0 44 165 74 222 5 10 9 23
9 29 0 11 77 223 131 359 16 41 29 83 29 93 0 10 4 16 9 12 6 -3 9 3 8 13 0
10 5 33 12 50 11 25 19 32 41 32 34 0 60 9 60 21 0 5 -24 9 -52 9 l-53 0 -288
-793z m733 718 c11 -25 35 -89 54 -143 19 -53 48 -133 64 -177 16 -44 53 -145
82 -225 28 -80 62 -172 75 -205 13 -33 25 -69 27 -80 1 -11 5 -22 8 -25 3 -3
25 -59 49 -125 24 -66 72 -197 107 -292 72 -196 82 -229 65 -219 -6 4 -11 3
-11 -1 0 -5 -45 -9 -100 -9 l-100 -1 -27 86 c-14 47 -29 88 -32 91 -3 3 -24
58 -46 123 -22 65 -46 124 -53 130 -21 17 -637 24 -658 7 -19 -17 -28 -37 -99
-245 -32 -93 -64 -175 -72 -182 -12 -9 -124 -12 -190 -4 -15 1 -18 41 -4 41 5
0 13 15 16 33 9 41 135 389 146 402 4 6 12 29 18 50 10 42 123 359 146 410 19
43 145 401 145 413 0 6 4 12 8 14 4 2 21 42 36 91 l28 87 150 0 149 0 19 -45z"/>
<path d="M1466 2196 c-9 -21 -16 -42 -16 -45 0 -4 -9 -25 -20 -48 -23 -48
-107 -276 -201 -546 -23 -66 -12 -71 137 -75 196 -5 394 7 394 24 0 16 -16 66
-87 262 -30 85 -52 156 -49 159 3 3 -1 11 -8 18 -7 7 -32 71 -56 142 -40 119
-60 165 -60 135 0 -7 56 -170 125 -363 69 -193 125 -352 125 -353 0 0 -115 -1
-255 -1 -140 0 -255 3 -255 6 0 3 56 162 125 354 69 192 124 354 122 360 -2 5
-12 -7 -21 -29z"/>
<path d="M1441 2194 c0 -11 3 -14 6 -6 3 7 2 16 -1 19 -3 4 -6 -2 -5 -13z"/>
<path d="M1592 2050 c0 -14 2 -19 5 -12 2 6 2 18 0 25 -3 6 -5 1 -5 -13z"/>
<path d="M1440 2050 c0 -10 152 -441 176 -498 7 -18 18 -31 23 -27 6 3 -9 59
-35 133 -25 70 -67 187 -92 259 -26 73 -53 135 -59 137 -7 3 -13 1 -13 -4z"/>
<path d="M1091 1694 c0 -11 3 -14 6 -6 3 7 2 16 -1 19 -3 4 -6 -2 -5 -13z"/>
<path d="M1911 1144 c0 -11 3 -14 6 -6 3 7 2 16 -1 19 -3 4 -6 -2 -5 -13z"/>
<path d="M1756 1153 c31 -87 65 -184 76 -215 l20 -58 56 0 c52 1 55 2 38 15
-11 8 -33 15 -48 15 -33 0 -26 -12 -97 189 -28 79 -48 147 -45 152 3 5 1 9 -3
9 -5 0 -13 10 -18 22 -6 12 -16 23 -22 26 -7 2 11 -64 43 -155z"/>
</g>
</svg>
